<?xml version="1.0" encoding="UTF-8" standalone="no"?>
<svg width="179px" height="200px" viewBox="0 0 179 200" version="1.1" xmlns="http://www.w3.org/2000/svg" xmlns:xlink="http://www.w3.org/1999/xlink" xmlns:sketch="http://www.bohemiancoding.com/sketch/ns">
    <!-- Generator: Sketch 3.2.2 (9983) - http://www.bohemiancoding.com/sketch -->
    <title>Untitled</title>
    <desc>Created with Sketch.</desc>
    <defs></defs>
    <g id="Page-1" stroke="none" stroke-width="1" fill="none" fill-rule="evenodd" sketch:type="MSPage">
        <g id="logo" sketch:type="MSLayerGroup">
            <g id="Page-1" sketch:type="MSShapeGroup">
                <path d="M153.024751,71.3959514 L153.015842,70.8493927 L149.482819,62.659919 L124.929041,70.6218623 L128.844362,90.134413 C139.522805,90.134413 153.024751,82.7603239 153.024751,71.3959514" id="Fill-1" fill="#FFB83D"></path>
                <path d="M144.392253,30.3295547 C163.705624,32.7748988 178.64686,49.4161943 178.64686,69.5821862 L178.630661,70.7206478 L120.152738,71.1959514 L138.72176,30.5740891 L144.392253,30.5740891 L144.392253,30.3295547" id="Fill-2" fill="#FFA303"></path>
                <path d="M66.3442036,56.037247 L78.329914,30.3732794 L144.436801,30.3587045 L126.805706,115.149798 L109.028819,127.045344 L66.3442036,56.037247" id="Fill-3" fill="#A438DE"></path>
                <path d="M66.3442036,56.037247 L0.328031674,199.787045 L126.805706,115.149798 L66.3442036,56.037247" id="Fill-4" fill="#0EAEF2"></path>
                <path d="M107.293896,41.4129555 C113.635842,41.4129555 118.777434,46.3465587 118.777434,52.4283401 C118.777434,58.5133603 113.635842,63.4445344 107.293896,63.4445344 C100.95195,63.4445344 95.8103575,58.5133603 95.8103575,52.4283401 C95.8103575,46.3465587 100.95195,41.4129555 107.293896,41.4129555" id="Fill-5" fill="#FFFFFF"></path>
                <path d="M37.6782851,118.45668 L100.173584,132.97247 L42.8547059,107.182996 L37.6782851,118.45668" id="Fill-6" fill="#049DDE"></path>
                <path d="M13.3091765,0.193522267 L20.4805158,97.2040486 L100.173584,132.97247 L126.805706,115.149798 L13.3091765,0.193522267" id="Fill-7" fill="#5BC989"></path>
            </g>
        </g>
    </g>
</svg>